<svg id="Layer_1" data-name="Layer 1" xmlns="http://www.w3.org/2000/svg" viewBox="0 0 175.6 166.5"><defs><style>.cls-1{fill:#fff;}</style></defs><title>logo dark</title><path class="cls-1" d="M81.6,43l15-43h5l54,147s6,12,10,14,6,4,9,4h1v1h-65v-1s5,0,7-2,3-4,3-6-15-47-15-47Z" transform="translate(0)"/><path class="cls-1" d="M51.1,123.5s2-.5,2,0-3,15-2,22,2,9,4,13,5,5,7,6,2,0,2,0v2h-47v-2s14-2,21-14S49.1,133.5,51.1,123.5Z" transform="translate(0)"/><path class="cls-1" d="M90.1,165.5c-1.18-.28.34-5.23-1-13-.17-1-2.34-12.8-11-22-6.7-7.12-14.52-9.73-18-11-16.61-6-36-15.19-48-30C9.16,85.86-1.15,72.69.1,54.5c.29-4.3,1.9-18.63,14-30,9.91-9.31,21.19-11.14,27-12,14.55-2.15,32,0,33,5,.32,1.61-1,4-2,4s-1.15-2.12-3-4c-.76-.77-2.12-1.83-9-3a45.82,45.82,0,0,0-8-1c-2.35,0-8.71.08-14,4-6.23,4.62-7.49,12-8,15-2,11.79,4.13,21.22,6,24,3.59,5.33,6.54,6.81,18,15,15.74,11.25,23.76,17,31,25,6.23,6.85,11.37,12.63,14,22,2.84,10.11,1.19,18.78,0,25C96.9,155,91.87,165.93,90.1,165.5Z" transform="translate(0)"/></svg>